<?xml version="1.0" standalone="no"?>
<!DOCTYPE svg PUBLIC "-//W3C//DTD SVG 20010904//EN"
 "http://www.w3.org/TR/2001/REC-SVG-20010904/DTD/svg10.dtd">
<svg version="1.0" xmlns="http://www.w3.org/2000/svg"
 width="562.000000pt" height="562.000000pt" viewBox="0 0 562.000000 562.000000"
 preserveAspectRatio="xMidYMid meet">
<metadata>
Created by potrace 1.14, written by Peter Selinger 2001-2017
</metadata>
<g transform="translate(0.000000,562.000000) scale(0.100000,-0.100000)"
fill="#000000" stroke="none">
<path d="M1840 5609 c0 -5 -6 -9 -12 -8 -21 4 -89 -29 -109 -53 -11 -12 -22
-18 -26 -15 -6 7 -17 -9 -45 -63 -10 -19 -14 -122 -18 -406 l-5 -380 -65 1
c-36 0 -71 -3 -77 -8 -8 -6 -13 -6 -13 0 0 10 -90 11 -107 0 -8 -5 -13 -3 -13
3 0 6 -5 8 -10 5 -6 -4 -22 -9 -37 -11 -14 -3 -36 -10 -47 -17 -12 -6 -24 -10
-28 -9 -12 3 -98 -89 -92 -99 3 -5 1 -9 -5 -9 -5 0 -10 -8 -10 -17 0 -10 -2
-37 -5 -61 -5 -33 -3 -41 6 -36 10 6 10 4 2 -7 -12 -15 -13 -117 -2 -135 4 -6
4 -14 0 -18 -12 -12 -10 -320 2 -328 8 -5 8 -8 0 -8 -12 0 -13 -108 -2 -126 4
-6 4 -14 1 -18 -13 -12 -12 -186 1 -179 6 4 5 -1 -3 -10 -7 -9 -10 -17 -5 -17
4 0 3 -5 -3 -11 -12 -12 -263 -16 -281 -5 -7 4 -12 3 -12 -3 0 -5 -8 -8 -17
-7 -10 2 -31 -1 -48 -6 -16 -5 -38 -11 -49 -13 -10 -2 -23 -9 -30 -14 -6 -5
-15 -10 -21 -10 -5 0 -18 -7 -27 -15 -9 -8 -26 -20 -38 -26 -12 -6 -19 -14
-16 -17 3 -4 -3 -12 -14 -20 -11 -8 -20 -21 -20 -29 0 -8 -4 -14 -9 -14 -20 0
-24 -113 -25 -675 l-1 -580 -85 -1 c-110 -2 -103 -1 -128 -24 -21 -20 -22 -28
-22 -215 0 -225 9 -258 85 -320 35 -29 109 -69 117 -63 2 1 13 -4 24 -10 46
-25 187 -35 259 -19 22 5 47 10 55 12 50 11 70 18 70 26 0 5 6 9 14 9 8 0 22
7 30 16 9 8 16 12 16 8 0 -3 7 -1 15 6 13 11 20 11 40 0 14 -7 25 -17 25 -21
0 -5 37 -20 83 -34 113 -36 260 -38 345 -3 69 28 98 42 110 55 19 18 35 16 65
-7 14 -11 30 -20 36 -20 6 0 11 -5 11 -11 0 -5 4 -8 9 -4 5 3 12 1 16 -5 4 -6
11 -7 17 -4 6 4 13 2 17 -3 16 -25 188 -36 271 -18 19 4 41 8 48 8 6 0 12 5
12 10 0 6 3 7 7 4 3 -4 12 -2 20 4 7 6 13 9 13 5 0 -3 21 8 47 24 26 17 50 30
54 30 4 0 33 -16 64 -35 32 -19 61 -32 66 -30 4 3 10 1 14 -5 3 -5 21 -10 39
-10 18 0 36 -3 40 -7 4 -4 17 -8 29 -8 l22 0 -1 -340 c0 -187 -3 -354 -6 -372
-11 -60 -61 -145 -118 -202 -62 -61 -90 -85 -90 -76 0 2 -9 -3 -20 -13 -12 -9
-24 -16 -28 -15 -4 1 -14 -5 -22 -12 -8 -7 -18 -14 -22 -14 -5 -1 -10 -2 -13
-2 -3 -1 -9 -3 -15 -4 -5 -1 -12 -4 -15 -5 -3 -1 -8 -3 -12 -5 -5 -1 -15 -4
-23 -8 -26 -10 -105 -31 -112 -29 -5 1 -8 -3 -8 -10 0 -6 -3 -9 -6 -6 -3 4
-21 0 -40 -8 -19 -8 -34 -11 -34 -8 0 4 -7 1 -15 -6 -8 -6 -19 -9 -25 -5 -5 3
-10 2 -10 -2 0 -5 -10 -10 -22 -10 -13 -1 -24 -7 -26 -13 -2 -5 -10 -10 -18
-10 -8 0 -14 -5 -14 -11 0 -5 -4 -8 -9 -5 -15 10 -101 -83 -101 -109 0 -7 -5
-17 -10 -20 -6 -4 -10 -29 -9 -56 3 -51 14 -65 56 -72 10 -1 24 -6 31 -10 7
-5 12 -3 12 3 0 8 6 8 20 0 13 -7 20 -7 20 -1 0 7 9 7 23 2 12 -5 32 -5 45 0
14 6 22 5 22 -2 0 -8 4 -8 14 0 10 8 16 9 21 1 4 -6 12 -7 23 -1 10 6 23 6 34
0 12 -7 18 -6 18 1 0 8 6 8 20 0 13 -7 20 -7 20 -1 0 7 8 7 23 2 12 -5 32 -5
44 0 13 5 25 4 29 -2 4 -7 10 -7 18 0 7 6 17 6 26 1 8 -5 21 -5 32 1 10 5 18
6 18 2 0 -10 47 -10 57 0 3 4 12 2 19 -4 8 -7 14 -7 19 1 4 7 12 7 26 0 13 -8
19 -7 19 0 0 8 6 8 20 0 11 -6 20 -7 20 -2 0 10 42 8 59 -3 6 -3 11 -1 11 5 0
8 6 8 20 0 13 -7 20 -7 20 -1 0 6 9 7 23 3 25 -9 67 -8 91 1 9 4 16 2 16 -4 0
-6 7 -6 20 1 14 8 20 8 20 0 0 -7 6 -8 19 0 13 7 22 7 26 0 4 -7 12 -7 24 0
10 5 21 7 24 4 8 -9 117 -10 130 -2 6 3 19 2 29 -3 12 -7 18 -6 18 1 0 8 6 8
20 0 13 -7 20 -7 20 -1 0 6 9 7 23 3 25 -9 67 -8 91 1 9 4 16 2 16 -4 0 -6 7
-6 19 1 14 7 22 7 26 0 5 -8 11 -8 19 -1 9 7 16 7 23 0 8 -8 13 -8 17 0 5 8
13 8 27 1 13 -8 19 -7 19 0 0 8 6 8 20 0 13 -7 20 -7 20 -1 0 6 9 7 23 3 26
-9 107 -8 131 1 9 4 16 1 16 -5 0 -7 4 -7 14 1 10 8 16 9 21 1 4 -6 12 -7 23
-1 11 6 24 6 35 0 11 -7 17 -6 17 1 0 8 6 8 20 0 13 -7 20 -7 20 -1 0 6 7 8
16 4 24 -9 105 -10 132 -1 14 5 22 3 22 -3 0 -8 4 -8 14 0 10 8 16 9 21 1 4
-6 12 -7 23 -1 11 6 24 6 35 0 11 -7 17 -6 17 1 0 8 6 8 20 0 15 -8 20 -8 20
1 0 7 3 9 6 6 4 -4 19 1 35 10 27 16 44 59 27 69 -4 3 -6 9 -3 14 14 23 -67
150 -95 150 -5 0 -10 4 -10 8 0 10 -80 48 -92 45 -5 -2 -8 2 -8 7 0 5 -3 9 -7
8 -8 -3 -123 28 -158 42 -50 20 -114 38 -119 32 -3 -3 -6 0 -6 6 0 7 -6 12
-14 12 -7 0 -26 7 -42 14 -15 8 -31 13 -36 10 -4 -3 -8 -1 -8 5 0 6 -13 17
-29 26 -37 19 -141 117 -141 133 0 7 -3 12 -8 12 -8 0 -34 55 -32 66 1 4 -4
10 -11 14 -6 4 -13 23 -14 41 -2 19 -4 34 -5 34 -2 0 -3 156 -4 346 -2 237 1
346 8 346 69 3 188 41 229 73 30 24 50 25 66 6 6 -8 35 -24 64 -36 164 -72
348 -57 505 41 18 11 24 10 41 -5 12 -11 21 -15 21 -10 0 5 4 4 8 -1 6 -9 55
-35 75 -41 4 -1 8 -2 10 -4 23 -18 203 -31 262 -17 22 5 51 11 65 13 14 3 35
12 47 20 12 8 29 14 36 14 8 0 22 9 32 20 23 26 35 25 78 -4 19 -13 38 -22 41
-18 3 3 6 0 6 -6 0 -7 8 -12 18 -12 10 0 22 -3 26 -7 3 -4 12 -8 19 -9 7 -1
28 -5 47 -9 55 -11 140 -12 195 -2 27 5 59 10 70 10 11 1 25 9 32 17 7 8 13
11 13 7 0 -12 88 40 119 72 64 63 66 69 69 280 2 106 1 204 -2 218 -9 33 -47
46 -146 48 -47 2 -87 3 -91 4 -8 2 -5 84 4 98 4 6 4 14 -1 17 -10 6 -9 86 1
103 4 6 4 14 -1 17 -10 6 -9 127 1 143 4 6 4 14 -1 17 -10 6 -9 127 1 143 4 6
4 14 -1 17 -10 6 -9 127 1 143 4 6 4 14 -1 17 -10 6 -9 127 1 143 4 6 4 14 -1
17 -9 6 -9 127 0 142 4 6 4 14 1 18 -4 4 -8 48 -9 98 -1 58 -6 94 -13 96 -6 2
-9 7 -6 12 3 5 -1 14 -8 22 -7 7 -21 25 -31 41 -10 15 -25 27 -33 27 -8 0 -11
5 -8 10 3 6 0 10 -8 10 -8 0 -20 7 -27 15 -7 8 -16 13 -20 10 -5 -3 -11 -1
-15 5 -8 13 -79 32 -135 36 -25 1 -47 4 -50 5 -3 1 -9 0 -15 -1 -24 -5 -226
-2 -232 4 -3 3 -7 221 -8 483 -1 263 -5 486 -9 496 -5 9 -12 17 -18 17 -5 0
-7 4 -4 9 7 10 -42 55 -87 80 -40 23 -130 43 -120 28 4 -6 1 -7 -7 -2 -18 11
-163 13 -178 2 -7 -6 -12 -6 -12 0 0 5 -17 9 -37 9 l-38 -1 -2 370 c-1 404 -2
413 -60 472 -38 38 -81 65 -93 58 -6 -3 -10 -2 -10 3 0 28 -105 31 -1037 31
-621 0 -953 -4 -953 -10z m-1130 -2177 c0 -5 -15 -19 -32 -31 l-33 -23 30 30
c33 34 35 35 35 24z m2588 -3074 c2 -5 10 -8 18 -8 8 0 14 -4 14 -8 0 -5 -15
-7 -32 -6 -18 1 -41 3 -50 3 -13 1 -18 9 -18 32 l0 30 33 -18 c17 -10 34 -21
35 -25z m-928 3 c0 -13 -9 -20 -30 -23 -43 -6 -46 3 -8 24 18 9 34 17 36 18 1
0 2 -8 2 -19z"/>
</g>
</svg>
